<svg width="141" height="160" viewBox="0 0 141 160" fill="none" xmlns="http://www.w3.org/2000/svg">
<path d="M140 41.5349C140 41.4419 140 41.4419 140 41.4419C140 41.3488 140 41.2558 140 41.1628V41.0698C140 41.0698 140 41.0698 140 40.9767V40.8837C140 40.7907 140 40.6977 139.907 40.6047V40.5116C139.907 40.5116 139.907 40.4186 139.813 40.4186C139.813 40.4186 139.813 40.3256 139.72 40.3256V40.2326L139.626 40.1395C139.626 40.1395 139.626 40.0465 139.533 40.0465C139.533 39.9535 139.44 39.9535 139.44 39.8605L139.346 39.7674C139.346 39.7674 139.346 39.6744 139.253 39.6744C139.253 39.6744 139.253 39.6744 139.159 39.5814L139.066 39.4884L138.973 39.3954L138.879 39.3023L138.786 39.2093L138.692 39.1163C138.692 39.1163 138.599 39.1163 138.599 39.0233L138.506 38.9302C138.506 38.9302 138.506 38.9302 138.412 38.8372L71.6344 0.418605C70.6071 -0.139535 69.3929 -0.139535 68.3656 0.418605L1.58773 38.7442C1.58773 38.7442 1.49433 38.7442 1.49433 38.8372C1.49433 38.8372 1.40093 38.8372 1.40093 38.9302C1.40093 38.9302 1.30754 38.9302 1.30754 39.0233L1.21414 39.1163L1.12075 39.2093L1.02735 39.3023L0.933956 39.3954L0.84056 39.4884C0.84056 39.4884 0.84056 39.4884 0.747165 39.5814L0.653769 39.6744L0.560374 39.7674C0.560374 39.8605 0.466978 39.8605 0.466978 39.9535C0.466978 39.9535 0.466978 40.0465 0.373582 40.0465L0.280187 40.1395V40.2326C0.280187 40.2326 0.280187 40.3256 0.186791 40.3256C0.186791 40.3256 0.186791 40.4186 0.0933956 40.4186V40.5116C0.0933956 40.6047 0 40.6977 0 40.7907V40.8837C0 40.8837 0 40.8837 0 40.9767V41.0698C0 41.1628 0 41.2558 0 41.3488V41.4419V118.186C0 118.279 0 118.279 0 118.372C0 118.372 0 118.372 0 118.465C0 118.465 0 118.465 0 118.558C0 118.744 0.0933956 119.023 0.0933956 119.209V119.302C0.186791 119.488 0.280187 119.767 0.373582 119.953C0.466978 120.14 0.653769 120.326 0.84056 120.512L0.933956 120.605C1.12075 120.791 1.30754 120.884 1.49433 120.977C1.49433 120.977 1.49433 120.977 1.58773 120.977L68.3656 159.395C68.459 159.395 68.459 159.488 68.5524 159.488C68.6458 159.488 68.6458 159.581 68.7392 159.581C68.7392 159.581 68.7392 159.581 68.8326 159.581H68.926H69.0194C69.1128 159.581 69.1127 159.581 69.2061 159.674C69.2995 159.674 69.2995 159.674 69.3929 159.674H69.4863H69.5797C69.7665 159.674 69.8599 159.674 70.0467 159.674C70.2335 159.674 70.3269 159.674 70.5137 159.674H70.6071H70.7005C70.7939 159.674 70.7939 159.674 70.8873 159.674C70.9807 159.674 70.9807 159.674 71.0741 159.581H71.1674H71.2608C71.2608 159.581 71.2608 159.581 71.3542 159.581C71.4476 159.581 71.4476 159.488 71.541 159.488C71.6344 159.488 71.6344 159.395 71.7278 159.395L138.506 120.977C138.506 120.977 138.506 120.977 138.599 120.977C138.786 120.884 138.973 120.698 139.159 120.605L139.253 120.512C139.626 120.14 139.813 119.767 140 119.302V119.209C140.093 119.023 140.093 118.744 140.093 118.558C140.093 118.558 140.093 118.558 140.093 118.465C140.093 118.465 140.093 118.465 140.093 118.372C140.093 118.279 140.093 118.279 140.093 118.186V41.5349H140ZM15.4103 43.3954L63.976 37.814L49.2195 63.2093L36.4243 85.3488L8.87258 44.1395L15.4103 43.3954ZM44.2695 84.7907L70.0467 40.3256L97.7852 88.2326H42.2148L44.2695 84.7907ZM98.0654 94.7442L69.9533 149.628L41.9346 94.7442H98.0654ZM103.576 85.3488L76.024 37.907L131.034 44.2326L117.959 63.7674L103.576 85.3488ZM12.2348 60.8837L32.3149 90.8372L6.53769 111.581V52.2326L12.2348 60.8837ZM104.416 96.5116L114.596 104.698L130.941 117.907L77.7985 148.512L104.416 96.5116ZM107.685 90.8372L127.765 60.8837L133.462 52.3256V111.581L107.685 90.8372ZM73.2222 31.0233V8.7907L121.508 36.6047L73.2222 31.0233ZM66.7779 8.7907V31.0233L18.4923 36.6047L66.7779 8.7907ZM8.96598 117.907L25.3102 104.698L35.4903 96.5116L51.2742 127.395L62.1081 148.512L8.96598 117.907Z" fill="#1E43FF"/>
<path d="M129.96 151.977H127.067V160H125.887V151.977H123V151H129.96V151.977Z" fill="#1E43FF"/>
<path d="M132.828 151L135.771 158.343L138.713 151H140.252V160H139.065V156.495L139.177 152.712L136.222 160H135.313L132.365 152.731L132.482 156.495V160H131.295V151H132.828Z" fill="#1E43FF"/>
<path d="M129.96 151.977H127.067V160H125.887V151.977H123V151H129.96V151.977Z" fill="#1E43FF"/>
<path d="M132.828 151L135.771 158.343L138.713 151H140.252V160H139.065V156.495L139.177 152.712L136.222 160H135.313L132.365 152.731L132.482 156.495V160H131.295V151H132.828Z" fill="#1E43FF"/>
</svg>
