<svg width="704" height="162" viewBox="0 0 704 162" fill="none" xmlns="http://www.w3.org/2000/svg">
<path d="M224.921 101.896C220.637 97.9531 218.33 92.3669 218 85.1377V77.2513C218.33 70.0221 220.637 64.7645 224.921 60.4927C229.205 56.5494 235.138 54.5779 242.388 54.5779C247.662 54.5779 251.946 55.5637 255.571 57.2067C259.197 59.1783 261.833 61.1499 263.481 64.1073C265.129 66.7361 266.118 69.3649 266.447 71.6651C266.447 72.3223 266.447 72.9795 265.788 73.3081C265.459 73.6367 264.799 73.9653 264.14 73.9653H255.242C254.583 73.9653 253.923 73.9653 253.594 73.6367C253.264 73.3081 252.935 72.6509 252.605 71.9937C251.616 69.3649 250.298 67.7219 248.65 66.7361C247.002 65.7503 245.025 65.0931 242.388 65.0931C239.093 65.0931 236.456 66.0789 234.479 68.3791C232.501 70.3507 231.513 73.6367 231.513 77.9085V84.8091C231.842 93.3527 235.467 97.6245 242.388 97.6245C245.025 97.6245 247.002 96.9673 248.65 95.9815C250.298 94.9957 251.616 93.0241 252.605 90.3953C252.935 89.7381 253.264 89.0809 253.594 88.7523C253.923 88.4237 254.583 88.4237 255.242 88.4237H264.14C264.799 88.4237 265.459 88.7523 265.788 89.0809C266.118 89.4095 266.447 90.0667 266.447 90.7239C266.447 93.0241 265.459 95.6529 263.811 98.2817C262.163 100.911 259.526 103.211 255.901 105.182C252.276 107.154 247.991 108.14 242.718 108.14C235.138 107.811 229.205 105.84 224.921 101.896Z" fill="#08083D"/>
<path d="M277.323 101.896C273.039 97.9531 270.732 92.3669 270.402 85.4663V76.9227C270.732 70.0221 273.039 64.7645 277.323 60.4927C281.608 56.5494 287.54 54.5779 295.12 54.5779C302.7 54.5779 308.633 56.5494 312.917 60.4927C317.202 64.4359 319.509 70.0221 319.838 76.9227C319.838 77.5799 319.838 79.2229 319.838 81.1945C319.838 83.1661 319.838 84.8091 319.838 85.4663C319.509 92.3669 317.202 97.9531 312.917 101.896C308.633 105.84 302.7 107.811 295.12 107.811C287.54 107.811 281.608 105.84 277.323 101.896ZM303.36 94.6671C305.337 92.3669 306.326 89.4095 306.326 85.1377C306.326 84.4805 306.326 83.1661 306.326 81.1945C306.326 79.2229 306.326 77.9085 306.326 77.2513C306.326 72.9795 305.337 69.6935 303.36 67.7219C301.382 65.4217 298.746 64.4359 295.45 64.4359C291.825 64.4359 289.188 65.4217 287.21 67.7219C285.233 70.0221 284.244 72.9795 284.244 77.2513V85.1377C284.244 89.4095 285.233 92.3669 287.21 94.6671C289.188 96.9673 291.825 97.9531 295.45 97.9531C298.746 97.9531 301.712 96.9673 303.36 94.6671Z" fill="#08083D"/>
<path d="M327.748 106.168C327.418 105.839 327.089 105.182 327.089 104.525V58.1921C327.089 57.5349 327.418 56.8777 327.748 56.5491C328.077 56.2205 328.737 55.8919 329.396 55.8919H337.305C337.965 55.8919 338.624 56.2205 338.953 56.5491C339.283 56.8777 339.612 57.5349 339.612 58.1921V61.4781C343.238 56.8777 347.852 54.9061 353.784 54.9061C361.035 54.9061 366.308 57.8635 368.944 63.7783C370.592 61.1495 372.899 59.1779 375.536 57.5349C378.502 55.8919 381.468 55.2347 384.764 55.2347C390.037 55.2347 394.651 57.2063 397.947 60.8209C401.243 64.4355 403.22 69.6931 403.22 76.9223V105.182C403.22 105.839 402.891 106.496 402.561 106.825C402.231 107.154 401.572 107.482 400.913 107.482H392.674C392.015 107.482 391.355 107.154 391.026 106.825C390.696 106.496 390.367 105.839 390.367 105.182V77.5795C390.367 73.3077 389.378 70.3503 387.73 68.7073C386.082 66.7357 383.775 66.0785 380.809 66.0785C378.173 66.0785 376.195 67.0643 374.218 69.0359C372.57 71.0075 371.581 73.9649 371.581 77.9081V105.51C371.581 106.168 371.252 106.825 370.922 107.154C370.592 107.482 369.933 107.811 369.274 107.811H361.035C360.376 107.811 359.716 107.482 359.387 107.154C359.057 106.825 358.728 106.168 358.728 105.51V77.9081C358.728 73.9649 357.739 71.0075 356.091 69.0359C354.443 67.0643 352.136 66.0785 349.17 66.0785C346.533 66.0785 344.556 67.0643 342.579 69.0359C340.931 71.0075 339.942 73.9649 339.942 77.9081V105.51C339.942 106.168 339.612 106.825 339.283 107.154C338.953 107.482 338.294 107.811 337.635 107.811H329.396C329.066 106.825 328.407 106.825 327.748 106.168Z" fill="#08083D"/>
<path d="M425.302 100.91V104.525C425.302 105.182 424.972 105.839 424.642 106.168C424.313 106.497 423.654 106.825 422.995 106.825H415.085C414.426 106.825 413.766 106.497 413.437 106.168C413.107 105.839 412.778 105.182 412.778 104.525V39.4621C412.778 38.8049 413.107 38.1477 413.437 37.8191C413.766 37.4905 414.426 37.1619 415.085 37.1619H423.654C424.313 37.1619 424.972 37.4905 425.302 37.8191C425.631 38.1477 425.961 38.8049 425.961 39.4621V61.1497C429.586 56.8779 434.53 54.5777 441.121 54.5777C447.713 54.5777 452.986 56.8779 456.611 61.1497C460.236 65.4215 462.214 71.0077 462.214 77.9083C462.214 78.5655 462.214 79.8799 462.214 81.1943C462.214 82.5087 462.214 83.4945 462.214 84.4803C461.884 91.7095 459.907 97.2957 456.611 101.568C452.986 105.839 448.042 107.811 441.451 107.811C434.2 107.811 428.927 105.511 425.302 100.91ZM448.372 84.4803C448.372 83.8231 448.372 82.8373 448.372 81.5229C448.372 80.2085 448.372 79.2227 448.372 78.5655C448.042 70.0219 444.087 65.4215 437.166 65.4215C433.541 65.4215 430.904 66.4073 428.927 68.7075C426.949 71.0077 425.961 73.6365 425.961 76.9225C425.961 77.5797 425.961 78.8941 425.961 80.8657C425.961 82.5087 425.961 83.8231 425.961 84.4803C425.961 88.0949 426.949 91.0523 428.927 93.3525C430.904 95.6527 433.541 96.9672 437.166 96.9672C444.087 97.2958 448.042 93.0239 448.372 84.4803Z" fill="#08083D"/>
<path d="M469.464 46.6913C469.135 46.3627 468.805 45.7055 468.805 45.0483V37.8191C468.805 37.1619 469.135 36.5047 469.464 36.1761C469.794 35.8475 470.453 35.5189 471.112 35.5189H480.34C480.999 35.5189 481.659 35.8475 481.988 36.1761C482.318 36.5047 482.647 37.1619 482.647 37.8191V45.0483C482.647 45.7055 482.318 46.3627 481.988 46.6913C481.659 47.0199 480.999 47.3485 480.34 47.3485H471.112C470.453 47.3485 469.794 47.3485 469.464 46.6913ZM469.794 106.168C469.464 105.839 469.135 105.182 469.135 104.525V58.1923C469.135 57.5351 469.464 56.8779 469.794 56.5493C470.124 56.2207 470.783 55.8921 471.442 55.8921H479.681C480.34 55.8921 480.999 56.2207 481.329 56.5493C481.659 56.8779 481.988 57.5351 481.988 58.1923V104.525C481.988 105.182 481.659 105.839 481.329 106.168C480.999 106.497 480.34 106.825 479.681 106.825H471.442C470.783 106.825 470.124 106.825 469.794 106.168Z" fill="#08083D"/>
<path d="M491.875 106.168C491.546 105.839 491.216 105.182 491.216 104.525V58.1921C491.216 57.5349 491.546 56.8777 491.875 56.5491C492.205 56.2205 492.864 55.8919 493.523 55.8919H501.763C502.422 55.8919 503.081 56.2205 503.411 56.5491C503.74 56.8777 504.07 57.5349 504.07 58.1921V62.1353C508.025 57.2063 513.627 54.9061 520.548 54.9061C526.481 54.9061 531.424 56.8777 535.05 60.8209C538.675 64.7641 540.323 70.0217 540.323 76.9223V104.525C540.323 105.182 539.993 105.839 539.664 106.168C539.334 106.496 538.675 106.825 538.016 106.825H529.117C528.458 106.825 527.799 106.496 527.469 106.168C527.14 105.839 526.81 105.182 526.81 104.525V77.5795C526.81 73.6363 525.822 70.6789 523.844 68.7073C521.867 66.7357 519.23 65.4213 515.934 65.4213C512.639 65.4213 510.002 66.4071 507.695 68.7073C505.718 71.0075 504.729 73.9649 504.729 77.5795V104.525C504.729 105.182 504.399 105.839 504.07 106.168C503.74 106.496 503.081 106.825 502.422 106.825H493.523C492.864 106.825 492.535 106.825 491.875 106.168Z" fill="#08083D"/>
<path d="M554.494 105.839C551.858 104.525 549.551 102.553 547.903 100.253C546.255 97.9527 545.596 95.3239 545.596 92.6951C545.596 88.0947 547.244 84.4801 550.869 81.8513C554.494 79.2225 559.438 77.2509 565.7 76.2651L579.212 74.2935V72.3219C579.212 69.3645 578.553 67.3929 576.905 66.0785C575.587 64.7641 573.28 63.7783 569.984 63.7783C567.677 63.7783 566.03 64.1069 564.711 65.0927C563.393 65.7499 562.404 66.7357 561.415 67.3929C560.756 68.0501 560.097 68.7073 559.768 69.0359C559.438 69.6931 559.108 70.3503 558.449 70.3503H551.199C550.54 70.3503 550.21 70.0217 549.551 69.6931C549.221 69.3645 548.892 68.7073 548.892 68.0501C548.892 66.4071 549.88 64.4355 551.199 62.4639C552.847 60.4923 555.154 58.5207 558.449 57.2063C561.745 55.5633 565.7 54.9061 570.314 54.9061C578.224 54.9061 583.826 56.5491 587.452 60.1637C591.077 63.7783 592.725 68.0501 592.725 73.9649V104.853C592.725 105.51 592.395 106.168 592.066 106.496C591.736 106.825 591.077 107.154 590.418 107.154H582.179C581.519 107.154 580.86 106.825 580.531 106.496C580.201 106.168 579.872 105.51 579.872 104.853V100.91C578.553 102.882 576.246 104.853 573.61 106.168C570.973 107.482 567.677 108.139 563.723 108.139C560.427 107.811 557.461 107.154 554.494 105.839ZM576.246 94.9953C578.553 92.6951 579.542 89.0805 579.542 84.8087V82.8371L569.655 84.4801C562.075 85.7945 558.449 88.0947 558.449 92.0379C558.449 94.0095 559.438 95.6525 561.086 96.9669C562.734 97.9527 565.041 98.6099 567.348 98.6099C570.973 98.6099 573.939 97.2955 576.246 94.9953Z" fill="#08083D"/>
<path d="M610.851 102.224C607.885 99.2671 606.237 94.6667 606.237 88.4232V66.0784H598.328C597.668 66.0784 597.009 65.7498 596.68 65.4212C596.35 65.0926 596.021 64.4354 596.021 63.7782V57.8634C596.021 57.2062 596.35 56.549 596.68 56.2204C597.009 55.8918 597.668 55.5632 598.328 55.5632H606.237V39.1332C606.237 38.476 606.567 37.8188 606.896 37.4902C607.226 37.1616 607.885 36.833 608.544 36.833H616.784C617.443 36.833 618.102 37.1616 618.431 37.4902C618.761 37.8188 619.091 38.476 619.091 39.1332V55.5632H631.285C631.944 55.5632 632.603 55.8918 632.933 56.2204C633.262 56.549 633.592 57.2062 633.592 57.8634V63.7782C633.592 64.4354 633.262 65.0926 632.933 65.4212C632.603 65.7498 631.944 66.0784 631.285 66.0784H619.091V87.1088C619.091 90.0662 619.42 92.0379 620.409 93.3523C621.398 94.6667 623.045 95.6525 625.352 95.6525H632.273C632.933 95.6525 633.592 95.981 633.921 96.3097C634.251 96.6383 634.58 97.2955 634.58 97.9527V104.196C634.58 104.853 634.251 105.51 633.921 105.839C633.592 106.168 632.933 106.496 632.273 106.496H624.034C618.431 106.825 613.817 105.51 610.851 102.224Z" fill="#08083D"/>
<path d="M644.138 101.568C639.854 97.2959 637.547 91.3811 637.217 83.4947V81.1945C637.217 72.9795 639.524 66.4075 643.809 61.8071C648.093 57.2066 654.025 54.5779 661.605 54.5779C669.515 54.5779 675.448 56.878 679.732 61.8071C684.016 66.4075 685.994 72.9795 685.994 80.5373V82.5089C685.994 83.1661 685.664 83.8233 685.335 84.1519C685.005 84.4805 684.346 84.8091 683.687 84.8091H651.059V85.4663C651.059 89.0809 652.048 92.0383 654.025 94.6671C656.003 96.9673 658.639 98.2817 661.935 98.2817C665.56 98.2817 668.856 96.6387 671.163 93.6813C671.822 93.0241 672.152 92.3669 672.481 92.3669C672.811 92.3669 673.47 92.0383 674.129 92.0383H682.698C683.357 92.0383 683.687 92.3669 684.346 92.3669C684.676 92.6955 685.005 93.0241 685.005 93.6813C685.005 95.3243 684.016 96.9673 682.039 99.2675C680.062 101.239 677.425 103.211 674.129 104.854C670.504 106.497 666.549 107.154 661.935 107.154C654.355 107.811 648.423 105.84 644.138 101.568ZM672.481 76.9227C672.481 72.9795 671.493 69.6935 669.515 67.3933C667.538 65.0931 664.901 63.7787 661.605 63.7787C658.31 63.7787 655.673 65.0931 653.696 67.3933C651.718 69.6935 650.73 72.9795 650.73 76.5941V76.9227H672.481Z" fill="#08083D"/>
<path d="M140 42.6112C140 42.5182 140 42.5182 140 42.5182C140 42.4251 140 42.3321 140 42.2391V42.1461C140 42.1461 140 42.1461 140 42.053V41.96C140 41.867 140 41.774 139.907 41.681V41.5879C139.907 41.5879 139.907 41.4949 139.813 41.4949C139.813 41.4949 139.813 41.4019 139.72 41.4019V41.3089L139.626 41.2158C139.626 41.2158 139.626 41.1228 139.533 41.1228C139.533 41.0298 139.44 41.0298 139.44 40.9368L139.346 40.8437C139.346 40.8437 139.346 40.7507 139.253 40.7507C139.253 40.7507 139.253 40.7507 139.159 40.6577L139.066 40.5647L138.973 40.4716L138.879 40.3786L138.786 40.2856L138.692 40.1926C138.692 40.1926 138.599 40.1926 138.599 40.0996L138.506 40.0065C138.506 40.0065 138.506 40.0065 138.412 39.9135L71.6344 1.4949C70.6071 0.936759 69.3929 0.936759 68.3656 1.4949L1.58773 39.8205C1.58773 39.8205 1.49433 39.8205 1.49433 39.9135C1.49433 39.9135 1.40093 39.9135 1.40093 40.0065C1.40093 40.0065 1.30754 40.0065 1.30754 40.0996L1.21414 40.1926L1.12075 40.2856L1.02735 40.3786L0.933956 40.4716L0.84056 40.5647C0.84056 40.5647 0.84056 40.5647 0.747165 40.6577L0.653769 40.7507L0.560374 40.8437C0.560374 40.9368 0.466978 40.9368 0.466978 41.0298C0.466978 41.0298 0.466978 41.1228 0.373582 41.1228L0.280187 41.2158V41.3089C0.280187 41.3089 0.280187 41.4019 0.186791 41.4019C0.186791 41.4019 0.186791 41.4949 0.0933956 41.4949V41.5879C0.0933956 41.6809 0 41.774 0 41.867V41.96C0 41.96 0 41.96 0 42.053V42.1461C0 42.2391 0 42.3321 0 42.4251V42.5182V119.262C0 119.355 0 119.355 0 119.448C0 119.448 0 119.448 0 119.541C0 119.541 0 119.541 0 119.634C0 119.82 0.0933956 120.1 0.0933956 120.286V120.379C0.186791 120.565 0.280187 120.844 0.373582 121.03C0.466978 121.216 0.653769 121.402 0.84056 121.588L0.933956 121.681C1.12075 121.867 1.30754 121.96 1.49433 122.053C1.49433 122.053 1.49433 122.053 1.58773 122.053L68.3656 160.472C68.459 160.472 68.459 160.565 68.5524 160.565C68.6458 160.565 68.6458 160.658 68.7392 160.658C68.7392 160.658 68.7392 160.658 68.8326 160.658H68.926H69.0194C69.1128 160.658 69.1127 160.658 69.2061 160.751C69.2995 160.751 69.2995 160.751 69.3929 160.751H69.4863H69.5797C69.7665 160.751 69.8599 160.751 70.0467 160.751C70.2335 160.751 70.3269 160.751 70.5137 160.751H70.6071H70.7005C70.7939 160.751 70.7939 160.751 70.8873 160.751C70.9807 160.751 70.9807 160.751 71.0741 160.658H71.1674H71.2608C71.2608 160.658 71.2608 160.658 71.3542 160.658C71.4476 160.658 71.4476 160.565 71.541 160.565C71.6344 160.565 71.6344 160.472 71.7278 160.472L138.506 122.053C138.506 122.053 138.506 122.053 138.599 122.053C138.786 121.96 138.973 121.774 139.159 121.681L139.253 121.588C139.626 121.216 139.813 120.844 140 120.379V120.286C140.093 120.1 140.093 119.82 140.093 119.634C140.093 119.634 140.093 119.634 140.093 119.541C140.093 119.541 140.093 119.541 140.093 119.448C140.093 119.355 140.093 119.355 140.093 119.262V42.6112H140ZM15.4103 44.4716L63.976 38.8903L49.2195 64.2856L36.4243 86.4251L8.87258 45.2158L15.4103 44.4716ZM44.2695 85.867L70.0467 41.4019L97.7852 89.3089H42.2148L44.2695 85.867ZM98.0654 95.8205L69.9533 150.704L41.9346 95.8205H98.0654ZM103.576 86.4251L76.024 38.9833L131.034 45.3089L117.959 64.8437L103.576 86.4251ZM12.2348 61.96L32.3149 91.9135L6.53769 112.658V53.3089L12.2348 61.96ZM104.416 97.5879L114.596 105.774L130.941 118.983L77.7985 149.588L104.416 97.5879ZM107.685 91.9135L127.765 61.96L133.462 53.4019V112.658L107.685 91.9135ZM73.2222 32.0996V9.86699L121.508 37.681L73.2222 32.0996ZM66.7779 9.86699V32.0996L18.4923 37.681L66.7779 9.86699ZM8.96598 118.983L25.3102 105.774L35.4903 97.5879L51.2742 128.472L62.1081 149.588L8.96598 118.983Z" fill="#1E43FF"/>
<path d="M692.96 46.0064H690.067V54.0298H688.887V46.0064H686V45.0298H692.96V46.0064Z" fill="#08083D"/>
<path d="M695.828 45.0298L698.771 52.3732L701.713 45.0298H703.252V54.0298H702.065V50.525L702.177 46.742L699.222 54.0298H698.313L695.365 46.7606L695.482 50.525V54.0298H694.295V45.0298H695.828Z" fill="#08083D"/>
<path d="M692.96 46.9766H690.067V55H688.887V46.9766H686V46H692.96V46.9766Z" fill="#08083D"/>
<path d="M695.828 46L698.771 53.3434L701.713 46H703.252V55H702.065V51.4952L702.177 47.7122L699.222 55H698.313L695.365 47.7308L695.482 51.4952V55H694.295V46H695.828Z" fill="#08083D"/>
</svg>
