<svg id="Layer_1" data-name="Layer 1" xmlns="http://www.w3.org/2000/svg" viewBox="0 0 141 160"><defs><style>.cls-1{fill:#fff;}</style></defs><path class="cls-1" d="M140,41.53v-.65a.36.36,0,0,0-.09-.28v-.09a.09.09,0,0,0-.1-.09.09.09,0,0,0-.09-.09v-.1l-.09-.09a.09.09,0,0,0-.1-.09c0-.1-.09-.1-.09-.19l-.09-.09a.1.1,0,0,0-.1-.1l-.09-.09-.09-.09-.1-.09-.09-.1-.09-.09-.1-.09a.09.09,0,0,1-.09-.1l-.09-.09-.1-.09L71.63.42a3.37,3.37,0,0,0-3.26,0L1.59,38.74a.1.1,0,0,0-.1.1.09.09,0,0,0-.09.09.09.09,0,0,0-.09.09l-.1.1-.09.09L1,39.3l-.1.1-.09.09-.09.09-.1.09-.09.1c0,.09-.09.09-.09.18a.1.1,0,0,1-.1.1l-.09.09v.09s0,.1-.09.1a.09.09,0,0,1-.1.09v.09c0,.09-.09.19-.09.28v77.77c0,.18.09.46.09.65v.09c.1.19.19.47.28.65a2.37,2.37,0,0,0,.47.56l.09.09a2.22,2.22,0,0,0,.56.38h.1L68.37,159.4c.09,0,.09.09.18.09s.1.09.19.09H69c.09,0,.09,0,.19.09h1.68c.09,0,.09,0,.18-.09h.28c.1,0,.1-.09.19-.09s.09-.09.19-.09L138.51,121h.09c.19-.1.37-.28.56-.38l.09-.09a3.19,3.19,0,0,0,.75-1.21v-.09a1.65,1.65,0,0,0,.09-.65v-77ZM15.41,43.4,64,37.81,49.22,63.21,36.42,85.35,8.87,44.14ZM44.27,84.79,70.05,40.33l27.74,47.9H42.21Zm53.8,9.95L70,149.63l-28-54.89Zm5.51-9.39L76,37.91l55,6.32L118,63.77ZM12.23,60.88l20.08,30L6.54,111.58V52.23Zm92.19,35.63,10.18,8.19,16.34,13.21L77.8,148.51Zm3.26-5.67,20.08-30,5.7-8.55v59.25ZM73.22,31V8.79L121.51,36.6ZM66.78,8.79V31L18.49,36.6ZM9,117.91,25.31,104.7l10.18-8.19L51.27,127.4l10.84,21.11Z"/><path class="cls-1" d="M130,152h-2.89v8h-1.18v-8H123v-1h7Z"/><path class="cls-1" d="M132.83,151l2.94,7.34,2.94-7.34h1.54v9h-1.18v-3.5l.11-3.79-3,7.29h-.91l-2.95-7.27.12,3.77V160H131.3v-9Z"/><path class="cls-1" d="M130,152h-2.89v8h-1.18v-8H123v-1h7Z"/><path class="cls-1" d="M132.83,151l2.94,7.34,2.94-7.34h1.54v9h-1.18v-3.5l.11-3.79-3,7.29h-.91l-2.95-7.27.12,3.77V160H131.3v-9Z"/></svg>