<svg width="486" height="296" viewBox="0 0 486 296" fill="none" xmlns="http://www.w3.org/2000/svg">
<path d="M6.92113 289.067C2.63662 285.112 0.329577 279.508 0 272.256V268.301V264.346C0.329577 257.094 2.63662 251.82 6.92113 247.535C11.2056 243.579 17.138 241.602 24.3887 241.602C29.662 241.602 33.9465 242.591 37.5718 244.239C41.1972 246.216 43.8338 248.194 45.4817 251.161C47.1296 253.798 48.1183 256.435 48.4479 258.742C48.4479 259.401 48.4479 260.061 47.7887 260.39C47.4592 260.72 46.8 261.049 46.1408 261.049H37.2423C36.5831 261.049 35.9239 261.049 35.5944 260.72C35.2648 260.39 34.9352 259.731 34.6056 259.072C33.6169 256.435 32.2986 254.787 30.6507 253.798C29.0028 252.809 27.0254 252.15 24.3887 252.15C21.093 252.15 18.4563 253.138 16.4789 255.446C14.5014 257.424 13.5127 260.72 13.5127 265.005V268.631V271.927C13.8423 280.497 17.4676 284.782 24.3887 284.782C27.0254 284.782 29.0028 284.123 30.6507 283.134C32.2986 282.145 33.6169 280.167 34.6056 277.53C34.9352 276.871 35.2648 276.212 35.5944 275.882C35.9239 275.553 36.5831 275.553 37.2423 275.553H46.1408C46.8 275.553 47.4592 275.882 47.7887 276.212C48.1183 276.542 48.4479 277.201 48.4479 277.86C48.4479 280.167 47.4592 282.804 45.8113 285.441C44.1634 288.078 41.5268 290.386 37.9014 292.363C34.2761 294.341 29.9915 295.33 24.7183 295.33C17.138 295 11.2056 293.023 6.92113 289.067Z" fill="#08083D"/>
<path d="M59.324 289.067C55.0395 285.112 52.7324 279.508 52.4028 272.586V268.301V264.016C52.7324 257.094 55.0395 251.82 59.324 247.535C63.6085 243.579 69.5409 241.602 77.1211 241.602C84.7014 241.602 90.6338 243.579 94.9183 247.535C99.2028 251.49 101.51 257.094 101.839 264.016C101.839 264.675 101.839 266.323 101.839 268.301C101.839 270.279 101.839 271.927 101.839 272.586C101.51 279.508 99.2028 285.112 94.9183 289.067C90.6338 293.023 84.7014 295 77.1211 295C69.5409 295 63.6085 293.023 59.324 289.067ZM85.3606 281.815C87.338 279.508 88.3268 276.542 88.3268 272.256C88.3268 271.597 88.3268 270.279 88.3268 268.301C88.3268 266.323 88.3268 265.005 88.3268 264.346C88.3268 260.06 87.338 256.764 85.3606 254.787C83.3831 252.479 80.7465 251.49 77.4507 251.49C73.8254 251.49 71.1887 252.479 69.2113 254.787C67.2338 257.094 66.2451 260.06 66.2451 264.346V268.301V272.256C66.2451 276.542 67.2338 279.508 69.2113 281.815C71.1887 284.123 73.8254 285.112 77.4507 285.112C80.7465 285.112 83.3831 284.123 85.3606 281.815Z" fill="#08083D"/>
<path d="M109.749 293.352C109.42 293.022 109.09 292.363 109.09 291.704V245.227C109.09 244.568 109.42 243.909 109.749 243.579C110.079 243.249 110.738 242.92 111.397 242.92H119.307C119.966 242.92 120.625 243.249 120.955 243.579C121.284 243.909 121.614 244.568 121.614 245.227V248.523C125.239 243.909 129.853 241.931 135.786 241.931C143.037 241.931 148.31 244.898 150.946 250.831C152.594 248.194 154.901 246.216 157.538 244.568C160.504 242.92 163.47 242.261 166.766 242.261C172.039 242.261 176.653 244.238 179.949 247.864C183.245 251.49 185.223 256.764 185.223 264.016V292.363C185.223 293.022 184.893 293.681 184.563 294.011C184.234 294.341 183.575 294.67 182.915 294.67H174.676C174.017 294.67 173.358 294.341 173.028 294.011C172.699 293.681 172.369 293.022 172.369 292.363V264.675C172.369 260.39 171.38 257.423 169.732 255.775C168.084 253.797 165.777 253.138 162.811 253.138C160.175 253.138 158.197 254.127 156.22 256.105C154.572 258.082 153.583 261.049 153.583 265.004V292.693C153.583 293.352 153.253 294.011 152.924 294.341C152.594 294.67 151.935 295 151.276 295H143.037C142.377 295 141.718 294.67 141.389 294.341C141.059 294.011 140.73 293.352 140.73 292.693V265.004C140.73 261.049 139.741 258.082 138.093 256.105C136.445 254.127 134.138 253.138 131.172 253.138C128.535 253.138 126.558 254.127 124.58 256.105C122.932 258.082 121.944 261.049 121.944 265.004V292.693C121.944 293.352 121.614 294.011 121.284 294.341C120.955 294.67 120.296 295 119.637 295H111.397C110.738 294.011 110.408 294.011 109.749 293.352Z" fill="#08083D"/>
<path d="M207.304 288.078V291.704C207.304 292.363 206.975 293.023 206.645 293.352C206.315 293.682 205.656 294.011 204.997 294.011H197.087C196.428 294.011 195.769 293.682 195.439 293.352C194.78 293.023 194.451 292.363 194.451 291.704V226.439C194.451 225.78 194.78 225.121 195.11 224.791C195.439 224.461 196.099 224.132 196.758 224.132H205.327C205.986 224.132 206.645 224.461 206.975 224.791C207.634 225.121 207.634 225.78 207.634 226.439V248.194C211.259 243.909 216.203 241.602 222.794 241.602C229.386 241.602 234.659 243.909 238.284 248.194C241.91 252.479 243.887 258.083 243.887 265.005C243.887 265.664 243.887 266.982 243.887 268.301C243.887 269.619 243.887 270.608 243.887 271.597C243.558 278.849 241.58 284.452 238.284 288.737C234.659 293.023 229.715 295 223.124 295C215.873 295 210.93 292.693 207.304 288.078ZM230.375 271.597C230.375 270.938 230.375 269.949 230.375 268.631C230.375 267.312 230.375 266.323 230.375 265.664C230.045 257.094 226.09 252.479 219.169 252.479C215.544 252.479 212.907 253.468 210.93 255.775C208.952 258.083 207.963 260.72 207.963 264.016C207.963 264.675 207.963 265.994 207.963 267.971C207.963 269.619 207.963 270.938 207.963 271.597C207.963 275.223 208.952 278.19 210.93 280.497C212.907 282.804 215.544 284.123 219.169 284.123C226.09 284.452 230.045 280.167 230.375 271.597Z" fill="#08083D"/>
<path d="M251.138 233.691C250.808 233.361 250.479 232.702 250.479 232.043V224.791C250.479 224.132 250.808 223.472 251.138 223.143C251.467 222.813 252.127 222.484 252.786 222.484H262.014C262.673 222.484 263.332 222.813 263.662 223.143C263.991 223.472 264.321 224.132 264.321 224.791V232.043C264.321 232.702 263.991 233.361 263.662 233.691C263.332 234.02 262.673 234.35 262.014 234.35H252.786C252.456 234.35 251.797 234.35 251.138 233.691ZM251.797 293.352C251.467 293.023 251.138 292.363 251.138 291.704V245.227C251.138 244.568 251.467 243.909 251.797 243.579C252.127 243.25 252.786 242.92 253.445 242.92H261.684C262.344 242.92 263.003 243.25 263.332 243.579C263.662 243.909 263.991 244.568 263.991 245.227V291.704C263.991 292.363 263.662 293.023 263.332 293.352C263.003 293.682 262.344 294.011 261.684 294.011H253.445C252.786 294.011 252.127 294.011 251.797 293.352Z" fill="#08083D"/>
<path d="M273.879 293.352C273.549 293.022 273.22 292.363 273.22 291.704V245.227C273.22 244.568 273.549 243.909 273.879 243.579C274.208 243.249 274.868 242.92 275.527 242.92H283.766C284.425 242.92 285.085 243.249 285.414 243.579C285.744 243.909 286.073 244.568 286.073 245.227V249.183C290.028 244.238 295.631 241.931 302.552 241.931C308.485 241.931 313.428 243.909 317.053 247.864C320.679 251.82 322.327 257.094 322.327 264.016V291.704C322.327 292.363 321.997 293.022 321.668 293.352C321.338 293.681 320.679 294.011 320.02 294.011H311.121C310.462 294.011 309.803 293.681 309.473 293.352C309.144 293.022 308.814 292.363 308.814 291.704V264.675C308.814 260.719 307.825 257.753 305.848 255.775C303.87 253.797 301.234 252.479 297.938 252.479C294.642 252.479 292.006 253.468 289.699 255.775C287.721 258.082 286.732 261.049 286.732 264.675V291.704C286.732 292.363 286.403 293.022 286.073 293.352C285.744 293.681 285.085 294.011 284.425 294.011H275.527C274.868 294.011 274.208 294.011 273.879 293.352Z" fill="#08083D"/>
<path d="M336.499 293.022C333.862 291.704 331.555 289.726 329.907 287.419C328.259 285.111 327.6 282.474 327.6 279.837C327.6 275.223 329.248 271.597 332.873 268.96C336.499 266.323 341.442 264.345 347.704 263.356L361.217 261.379V259.401C361.217 256.434 360.558 254.457 358.91 253.138C357.592 251.82 355.285 250.831 351.989 250.831C349.682 250.831 348.034 251.16 346.716 252.149C345.397 252.808 344.409 253.797 343.42 254.457C342.761 255.116 342.101 255.775 341.772 256.105C341.442 256.764 341.113 257.423 340.454 257.423H332.873C332.214 257.423 331.885 257.093 331.225 256.764C330.896 256.434 330.566 255.775 330.566 255.116C330.566 253.468 331.555 251.49 332.873 249.512C334.521 247.534 336.828 245.557 340.124 244.238C343.42 242.59 347.375 241.931 351.989 241.931C359.899 241.931 365.501 243.579 369.127 247.205C372.752 250.831 374.4 255.116 374.4 261.049V292.033C374.4 292.693 374.071 293.352 373.741 293.681C373.411 294.011 372.752 294.341 372.093 294.341H363.854C363.194 294.341 362.535 294.011 362.206 293.681C361.876 293.352 361.547 292.693 361.547 292.033V288.078C360.228 290.056 357.921 292.033 355.285 293.352C352.648 294.67 349.352 295.33 345.397 295.33C342.431 295 339.465 294.341 336.499 293.022ZM357.921 282.145C360.228 279.837 361.217 276.212 361.217 271.926V269.949L351.33 271.597C343.749 272.915 340.124 275.223 340.124 279.178C340.124 281.156 341.113 282.804 342.761 284.122C344.409 285.111 346.716 285.771 349.023 285.771C352.648 285.771 355.614 284.452 357.921 282.145Z" fill="#08083D"/>
<path d="M392.856 289.396C389.89 286.43 388.242 281.815 388.242 275.552V253.138H380.332C379.673 253.138 379.014 252.809 378.684 252.479C378.355 252.149 378.025 251.49 378.025 250.831V244.898C378.025 244.238 378.355 243.579 378.684 243.249C379.014 242.92 379.673 242.59 380.332 242.59H388.242V226.109C388.242 225.45 388.572 224.791 388.901 224.461C389.231 224.131 389.89 223.802 390.549 223.802H398.789C399.448 223.802 400.107 224.131 400.436 224.461C400.766 224.791 401.096 225.45 401.096 226.109V242.59H413.29C413.949 242.59 414.608 242.92 414.938 243.249C415.267 243.579 415.597 244.238 415.597 244.898V250.831C415.597 251.49 415.267 252.149 414.938 252.479C414.608 252.809 413.949 253.138 413.29 253.138H401.096V274.234C401.096 277.201 401.425 279.178 402.414 280.497C403.403 281.815 405.05 282.804 407.358 282.804H414.279C414.938 282.804 415.597 283.134 415.927 283.463C416.256 283.793 416.586 284.452 416.586 285.111V291.374C416.586 292.033 416.256 292.693 415.927 293.022C415.597 293.352 414.938 293.682 414.279 293.682H406.039C400.107 294.011 395.822 292.693 392.856 289.396Z" fill="#08083D"/>
<path d="M426.144 288.738C421.859 284.452 419.552 278.519 419.222 270.608V268.301C419.222 260.06 421.529 253.468 425.814 248.853C430.098 244.239 436.031 241.602 443.611 241.602C451.521 241.602 457.453 243.909 461.738 248.853C466.022 253.798 468 260.06 468 267.642V269.62C468 270.279 467.67 270.938 467.341 271.268C467.011 271.597 466.352 271.927 465.693 271.927H433.065V272.586C433.065 276.212 434.053 279.179 436.031 281.816C438.008 284.123 440.645 285.441 443.941 285.441C447.566 285.441 450.862 283.793 453.169 280.827C453.828 280.167 454.158 279.508 454.487 279.508C454.817 279.508 455.476 279.179 456.135 279.179H464.704C465.363 279.179 465.693 279.508 466.352 279.508C466.682 279.838 467.011 280.167 467.011 280.827C467.011 282.475 466.022 284.123 464.045 286.43C462.067 288.408 459.431 290.386 456.135 292.034C452.51 293.682 448.555 294.341 443.941 294.341C436.36 295 430.428 293.023 426.144 288.738ZM454.487 264.016C454.487 260.06 453.498 256.764 451.521 254.457C449.544 252.15 446.907 250.831 443.611 250.831C440.315 250.831 437.679 252.15 435.701 254.457C433.724 256.764 432.735 260.061 432.735 263.686V264.016H454.487Z" fill="#08083D"/>
<path d="M304 41.5815C304 41.4885 304 41.4885 304 41.4885C304 41.3955 304 41.3024 304 41.2094V41.1164C304 41.1164 304 41.1164 304 41.0234V40.9304C304 40.8373 304 40.7443 303.907 40.6513V40.5583C303.907 40.5583 303.907 40.4652 303.813 40.4652C303.813 40.4652 303.813 40.3722 303.72 40.3722V40.2792L303.626 40.1862C303.626 40.1862 303.626 40.0931 303.533 40.0931C303.533 40.0001 303.44 40.0001 303.44 39.9071L303.346 39.8141C303.346 39.8141 303.346 39.7211 303.253 39.7211C303.253 39.7211 303.253 39.7211 303.159 39.628L303.066 39.535L302.973 39.442L302.879 39.349L302.786 39.2559L302.692 39.1629C302.692 39.1629 302.599 39.1629 302.599 39.0699L302.506 38.9769C302.506 38.9769 302.506 38.9769 302.412 38.8838L235.634 0.465236C234.607 -0.092904 233.393 -0.092904 232.366 0.465236L165.588 38.7908C165.588 38.7908 165.494 38.7908 165.494 38.8838C165.494 38.8838 165.401 38.8838 165.401 38.9769C165.401 38.9769 165.308 38.9769 165.308 39.0699L165.214 39.1629L165.121 39.2559L165.027 39.349L164.934 39.442L164.841 39.535C164.841 39.535 164.841 39.535 164.747 39.628L164.654 39.7211L164.56 39.8141C164.56 39.9071 164.467 39.9071 164.467 40.0001C164.467 40.0001 164.467 40.0931 164.374 40.0931L164.28 40.1862V40.2792C164.28 40.2792 164.28 40.3722 164.187 40.3722C164.187 40.3722 164.187 40.4652 164.093 40.4652V40.5583C164.093 40.6513 164 40.7443 164 40.8373V40.9304C164 40.9304 164 40.9304 164 41.0234V41.1164C164 41.2094 164 41.3024 164 41.3955V41.4885V118.233C164 118.326 164 118.326 164 118.419C164 118.419 164 118.419 164 118.512C164 118.512 164 118.512 164 118.605C164 118.791 164.093 119.07 164.093 119.256V119.349C164.187 119.535 164.28 119.814 164.374 120C164.467 120.186 164.654 120.372 164.841 120.558L164.934 120.651C165.121 120.837 165.308 120.93 165.494 121.023C165.494 121.023 165.494 121.023 165.588 121.023L232.366 159.442C232.459 159.442 232.459 159.535 232.552 159.535C232.646 159.535 232.646 159.628 232.739 159.628C232.739 159.628 232.739 159.628 232.833 159.628H232.926H233.019C233.113 159.628 233.113 159.628 233.206 159.721C233.3 159.721 233.3 159.721 233.393 159.721H233.486H233.58C233.767 159.721 233.86 159.721 234.047 159.721C234.233 159.721 234.327 159.721 234.514 159.721H234.607H234.7C234.794 159.721 234.794 159.721 234.887 159.721C234.981 159.721 234.981 159.721 235.074 159.628H235.167H235.261C235.261 159.628 235.261 159.628 235.354 159.628C235.448 159.628 235.448 159.535 235.541 159.535C235.634 159.535 235.634 159.442 235.728 159.442L302.506 121.023C302.506 121.023 302.506 121.023 302.599 121.023C302.786 120.93 302.973 120.744 303.159 120.651L303.253 120.558C303.626 120.186 303.813 119.814 304 119.349V119.256C304.093 119.07 304.093 118.791 304.093 118.605C304.093 118.605 304.093 118.605 304.093 118.512C304.093 118.512 304.093 118.512 304.093 118.419C304.093 118.326 304.093 118.326 304.093 118.233V41.5815H304ZM179.41 43.442L227.976 37.8606L213.219 63.2559L200.424 85.3955L172.873 44.1862L179.41 43.442ZM208.27 84.8373L234.047 40.3722L261.785 88.2792H206.215L208.27 84.8373ZM262.065 94.7908L233.953 149.675L205.935 94.7908H262.065ZM267.576 85.3955L240.024 37.9536L295.034 44.2792L281.959 63.8141L267.576 85.3955ZM176.235 60.9304L196.315 90.8838L170.538 111.628V52.2792L176.235 60.9304ZM268.416 96.5583L278.596 104.744L294.941 117.954L241.799 148.558L268.416 96.5583ZM271.685 90.8838L291.765 60.9304L297.462 52.3722V111.628L271.685 90.8838ZM237.222 31.0699V8.83733L285.508 36.6513L237.222 31.0699ZM230.778 8.83733V31.0699L182.492 36.6513L230.778 8.83733ZM172.966 117.954L189.31 104.744L199.49 96.5583L215.274 127.442L226.108 148.558L172.966 117.954Z" fill="#1E43FF"/>
<path d="M474.96 232.977H472.067V241H470.887V232.977H468V232H474.96V232.977Z" fill="#08083D"/>
<path d="M477.828 232L480.771 239.343L483.713 232H485.252V241H484.065V237.495L484.177 233.712L481.222 241H480.313L477.365 233.731L477.482 237.495V241H476.295V232H477.828Z" fill="#08083D"/>
<path d="M474.96 233.977H472.067V242H470.887V233.977H468V233H474.96V233.977Z" fill="#08083D"/>
<path d="M477.828 233L480.771 240.343L483.713 233H485.252V242H484.065V238.495L484.177 234.712L481.222 242H480.313L477.365 234.731L477.482 238.495V242H476.295V233H477.828Z" fill="#08083D"/>
</svg>
