<svg xmlns="http://www.w3.org/2000/svg" viewBox="0 0 486 296"><defs><style>.cls-1{fill:#fff;}</style></defs><path class="cls-1" d="M6.92,289.07Q.5,283.13,0,272.26v-7.91c.33-7.26,2.64-12.53,6.92-16.82,4.29-3.95,10.22-5.93,17.47-5.93a31.22,31.22,0,0,1,13.18,2.64c3.63,2,6.26,3.95,7.91,6.92a20,20,0,0,1,3,7.58c0,.66,0,1.32-.66,1.65a2.52,2.52,0,0,1-1.65.66h-8.9a2.47,2.47,0,0,1-1.65-.33,7.23,7.23,0,0,1-1-1.65,9.72,9.72,0,0,0-4-5.27,11.7,11.7,0,0,0-6.26-1.65,9.76,9.76,0,0,0-7.91,3.3c-2,2-3,5.27-3,9.55v6.93q.49,12.85,10.88,12.85a11.7,11.7,0,0,0,6.26-1.65c1.65-1,3-3,4-5.6a7.23,7.23,0,0,1,1-1.65,2.47,2.47,0,0,1,1.65-.33h8.9a2.26,2.26,0,0,1,2.31,2.31,15,15,0,0,1-2.64,7.58,20.59,20.59,0,0,1-7.91,6.92,26.84,26.84,0,0,1-13.18,3C17.14,295,11.21,293,6.92,289.07Z"/><path class="cls-1" d="M59.32,289.07c-4.28-4-6.59-9.56-6.92-16.48V264c.33-6.93,2.64-12.2,6.92-16.49q6.43-5.92,17.8-5.93t17.8,5.93c4.28,4,6.59,9.56,6.92,16.49v8.57c-.33,6.92-2.64,12.52-6.92,16.48S84.7,295,77.12,295,63.61,293,59.32,289.07Zm26-7.25c2-2.31,3-5.28,3-9.56v-7.91c0-4.29-1-7.59-3-9.56a9.76,9.76,0,0,0-7.91-3.3c-3.62,0-6.26,1-8.24,3.3s-3,5.27-3,9.56v7.91c0,4.28,1,7.25,3,9.56s4.62,3.29,8.24,3.29A9.79,9.79,0,0,0,85.36,281.82Z"/><path class="cls-1" d="M109.75,293.35a2.52,2.52,0,0,1-.66-1.65V245.23a2.26,2.26,0,0,1,2.31-2.31h7.91a2.49,2.49,0,0,1,1.64.66,2.52,2.52,0,0,1,.66,1.65v3.29c3.63-4.61,8.24-6.59,14.18-6.59,7.25,0,12.52,3,15.16,8.9a19.84,19.84,0,0,1,6.59-6.26,18.24,18.24,0,0,1,9.23-2.31,17.43,17.43,0,0,1,13.18,5.6c3.29,3.63,5.27,8.9,5.27,16.16v28.34a2.26,2.26,0,0,1-2.31,2.31h-8.23a2.26,2.26,0,0,1-2.31-2.31V264.67c0-4.28-1-7.25-2.64-8.9-1.65-2-3.95-2.63-6.92-2.63a8.81,8.81,0,0,0-6.59,3c-1.65,2-2.64,4.95-2.64,8.9v27.69a2.52,2.52,0,0,1-.66,1.65,2.49,2.49,0,0,1-1.64.66H143a2.26,2.26,0,0,1-2.31-2.31V265c0-3.95-1-6.92-2.64-8.9a8.53,8.53,0,0,0-6.92-3,8.8,8.8,0,0,0-6.59,3c-1.65,2-2.64,4.95-2.64,8.9v27.69a2.52,2.52,0,0,1-.66,1.65,2.49,2.49,0,0,1-1.64.66H111.4C110.74,294,110.41,294,109.75,293.35Z"/><path class="cls-1" d="M207.3,288.08v3.62a2.52,2.52,0,0,1-.65,1.65A2.54,2.54,0,0,1,205,294h-7.91a2.52,2.52,0,0,1-1.65-.66,1.81,1.81,0,0,1-1-1.65V226.44a2.26,2.26,0,0,1,2.31-2.31h8.57a2.52,2.52,0,0,1,1.65.66c.65.33.65,1,.65,1.65v21.75c3.63-4.28,8.57-6.59,15.16-6.59s11.87,2.31,15.49,6.59,5.61,9.89,5.61,16.81v6.6c-.33,7.25-2.31,12.85-5.61,17.14-3.62,4.28-8.56,6.26-15.16,6.26C215.87,295,210.93,292.69,207.3,288.08Zm23.08-16.48v-5.94c-.33-8.57-4.29-13.18-11.21-13.18-3.63,0-6.26,1-8.24,3.29a12.06,12.06,0,0,0-3,8.25v7.58a13.2,13.2,0,0,0,3,8.9,10.25,10.25,0,0,0,8.24,3.62C226.09,284.45,230.05,280.17,230.38,271.6Z"/><path class="cls-1" d="M251.14,233.69a2.52,2.52,0,0,1-.66-1.65v-7.25a2.26,2.26,0,0,1,2.31-2.31H262a2.26,2.26,0,0,1,2.31,2.31V232a2.26,2.26,0,0,1-2.31,2.31h-9.22A2.13,2.13,0,0,1,251.14,233.69Zm.66,59.66a2.52,2.52,0,0,1-.66-1.65V245.23a2.26,2.26,0,0,1,2.3-2.31h8.24a2.26,2.26,0,0,1,2.31,2.31V291.7a2.26,2.26,0,0,1-2.31,2.31h-8.24C252.79,294,252.13,294,251.8,293.35Z"/><path class="cls-1" d="M273.88,293.35a2.52,2.52,0,0,1-.66-1.65V245.23a2.26,2.26,0,0,1,2.31-2.31h8.24a2.26,2.26,0,0,1,2.3,2.31v4c4-4.94,9.56-7.25,16.48-7.25,5.94,0,10.88,2,14.5,5.93s5.28,9.23,5.28,16.16V291.7A2.26,2.26,0,0,1,320,294h-8.9a2.26,2.26,0,0,1-2.31-2.31v-27c0-3.95-1-6.92-3-8.9a11.55,11.55,0,0,0-16.15,0,13.2,13.2,0,0,0-3,8.9v27a2.26,2.26,0,0,1-2.31,2.31h-8.89C274.87,294,274.21,294,273.88,293.35Z"/><path class="cls-1" d="M336.5,293a18.12,18.12,0,0,1-6.59-5.6,12.83,12.83,0,0,1-2.31-7.58c0-4.62,1.65-8.24,5.27-10.88s8.57-4.62,14.83-5.6l13.52-2v-2c0-3-.66-4.94-2.31-6.26-1.32-1.32-3.63-2.31-6.92-2.31-2.31,0-4,.33-5.27,1.32a28.54,28.54,0,0,0-3.3,2.31l-1.65,1.64c-.33.66-.66,1.32-1.32,1.32h-7.58c-.66,0-1-.33-1.64-.66a2.51,2.51,0,0,1-.66-1.64c0-1.65,1-3.63,2.3-5.61a18,18,0,0,1,7.25-5.27c3.3-1.65,7.26-2.31,11.87-2.31,7.91,0,13.51,1.65,17.14,5.27s5.27,7.92,5.27,13.85v31a2.26,2.26,0,0,1-2.31,2.31h-8.24a2.47,2.47,0,0,1-1.64-.66,2.52,2.52,0,0,1-.66-1.65v-3.95a16.72,16.72,0,0,1-6.27,5.27,22,22,0,0,1-9.88,2A29.58,29.58,0,0,1,336.5,293Zm21.42-10.87c2.31-2.31,3.3-5.94,3.3-10.22v-2l-9.89,1.65c-7.58,1.32-11.21,3.62-11.21,7.58a6.25,6.25,0,0,0,2.64,4.94,12.63,12.63,0,0,0,6.26,1.65A12.19,12.19,0,0,0,357.92,282.15Z"/><path class="cls-1" d="M392.86,289.4c-3-3-4.62-7.58-4.62-13.85V253.14h-7.91a2.26,2.26,0,0,1-2.31-2.31V244.9a2.26,2.26,0,0,1,2.31-2.31h7.91V226.11a2.26,2.26,0,0,1,2.31-2.31h8.24a2.26,2.26,0,0,1,2.31,2.31v16.48h12.19a2.26,2.26,0,0,1,2.31,2.31v5.93a2.26,2.26,0,0,1-2.31,2.31H401.1v21.09c0,3,.32,4.95,1.31,6.27a6,6,0,0,0,4.95,2.3h6.92a2.26,2.26,0,0,1,2.31,2.31v6.26a2.26,2.26,0,0,1-2.31,2.31H406C400.11,294,395.82,292.69,392.86,289.4Z"/><path class="cls-1" d="M426.14,288.74c-4.28-4.29-6.59-10.22-6.92-18.13V268.3c0-8.24,2.31-14.83,6.59-19.45s10.22-7.25,17.8-7.25c7.91,0,13.84,2.31,18.13,7.25S468,260.06,468,267.64v2a2.26,2.26,0,0,1-2.31,2.31H433.07v.66a14.74,14.74,0,0,0,3,9.23,10.06,10.06,0,0,0,7.91,3.62,11.56,11.56,0,0,0,9.23-4.61c.66-.66,1-1.32,1.32-1.32a14.29,14.29,0,0,1,1.65-.33h8.56c.66,0,1,.33,1.65.33a1.71,1.71,0,0,1,.66,1.32c0,1.65-1,3.29-3,5.6a30.32,30.32,0,0,1-7.91,5.6,28.76,28.76,0,0,1-12.2,2.31C436.36,295,430.43,293,426.14,288.74ZM454.49,264c0-4-1-7.26-3-9.56a10.43,10.43,0,0,0-15.82,0,14.06,14.06,0,0,0-3,9.23V264Z"/><path class="cls-1" d="M304,41.58v-.65a.35.35,0,0,0-.09-.28v-.09a.09.09,0,0,0-.1-.09s0-.1-.09-.1v-.09l-.09-.09a.1.1,0,0,0-.1-.1c0-.09-.09-.09-.09-.18l-.09-.1a.09.09,0,0,0-.1-.09l-.09-.09-.09-.1-.1-.09-.09-.09-.09-.09-.1-.1a.09.09,0,0,1-.09-.09l-.09-.09-.1-.1L235.63.47a3.37,3.37,0,0,0-3.26,0L165.59,38.79s-.1,0-.1.09a.09.09,0,0,0-.09.1.09.09,0,0,0-.09.09l-.1.09-.09.1-.09.09-.1.09-.09.09-.09.1-.1.09-.09.09c0,.1-.09.1-.09.19a.09.09,0,0,1-.1.09l-.09.1v.09a.09.09,0,0,1-.09.09.1.1,0,0,1-.1.1v.09c0,.09-.09.18-.09.28V118.6c0,.19.09.47.09.66v.09c.1.18.19.46.28.65a2.59,2.59,0,0,0,.47.56l.09.09a1.93,1.93,0,0,0,.56.37h.1l66.78,38.42c.09,0,.09.09.18.09s.1.1.19.1H233c.09,0,.09,0,.19.09h1.68c.09,0,.09,0,.18-.09h.28c.1,0,.1-.1.19-.1s.09-.09.19-.09L302.51,121h.09c.19-.09.37-.28.56-.37l.09-.09a3.27,3.27,0,0,0,.75-1.21v-.09a1.67,1.67,0,0,0,.09-.66v-77ZM179.41,43.44,228,37.86l-14.76,25.4L200.42,85.4,172.87,44.19Zm28.86,41.4,25.78-44.47,27.73,47.91H206.22Zm53.8,10L234,149.67l-28-54.88Zm5.51-9.39L240,38l55,6.33L282,63.81ZM176.23,60.93l20.08,29.95-25.77,20.75V52.28Zm92.19,35.63,10.18,8.18L294.94,118,241.8,148.56Zm3.26-5.68,20.08-29.95,5.7-8.56v59.26ZM237.22,31.07V8.84l48.29,27.81ZM230.78,8.84V31.07l-48.29,5.58ZM173,118l16.34-13.21,10.18-8.18,15.78,30.88,10.84,21.12Z"/><path class="cls-1" d="M475,233h-2.89v8h-1.18v-8H468v-1h7Z"/><path class="cls-1" d="M477.83,232l2.94,7.34,2.94-7.34h1.54v9h-1.18v-3.5l.11-3.79-3,7.29h-.91l-2.95-7.27.12,3.77V241H476.3v-9Z"/><path class="cls-1" d="M475,234h-2.89v8h-1.18v-8H468v-1h7Z"/><path class="cls-1" d="M477.83,233l2.94,7.34,2.94-7.34h1.54v9h-1.18v-3.5l.11-3.79-3,7.29h-.91l-2.95-7.27.12,3.77V242H476.3v-9Z"/></svg>