<svg width="384" height="57" viewBox="0 0 384 57" fill="none" xmlns="http://www.w3.org/2000/svg">
<path d="M5.41268 52.0996C2.06197 49.0045 0.257747 44.6199 0 38.9457V32.7557C0.257747 27.0815 2.06197 22.9548 5.41268 19.6019C8.76338 16.5069 13.4028 14.9594 19.0733 14.9594C23.1972 14.9594 26.5479 15.7331 29.3831 17.0227C32.2183 18.5702 34.2803 20.1177 35.569 22.439C36.8578 24.5023 37.631 26.5657 37.8888 28.3711C37.8888 28.8869 37.8888 29.4028 37.3733 29.6607C37.1155 29.9186 36.6 30.1765 36.0845 30.1765H29.1254C28.6099 30.1765 28.0944 30.1765 27.8366 29.9186C27.5789 29.6607 27.3212 29.1449 27.0634 28.629C26.2902 26.5657 25.2592 25.2761 23.9704 24.5023C22.6817 23.7286 21.1352 23.2127 19.0733 23.2127C16.4958 23.2127 14.4338 23.9865 12.8873 25.7919C11.3409 27.3394 10.5676 29.9186 10.5676 33.2715V38.6878C10.8254 45.3937 13.6606 48.7466 19.0733 48.7466C21.1352 48.7466 22.6817 48.2308 23.9704 47.457C25.2592 46.6833 26.2902 45.1358 27.0634 43.0724C27.3212 42.5566 27.5789 42.0408 27.8366 41.7828C28.0944 41.5249 28.6099 41.5249 29.1254 41.5249H36.0845C36.6 41.5249 37.1155 41.7828 37.3733 42.0408C37.631 42.2987 37.8888 42.8145 37.8888 43.3303C37.8888 45.1358 37.1155 47.1991 35.8268 49.2625C34.5381 51.3258 32.4761 53.1312 29.6409 54.6787C26.8057 56.2262 23.455 57 19.331 57C13.4028 56.7421 8.76338 55.1946 5.41268 52.0996Z" fill="#08083D"/>
<path d="M46.3945 52.0996C43.0438 49.0045 41.2395 44.6199 40.9818 39.2037V32.4978C41.2395 27.0815 43.0438 22.9548 46.3945 19.6019C49.7452 16.5069 54.3846 14.9594 60.3128 14.9594C66.2409 14.9594 70.8804 16.5069 74.2311 19.6019C77.5818 22.6969 79.386 27.0815 79.6438 32.4978C79.6438 33.0136 79.6438 34.3032 79.6438 35.8507C79.6438 37.3982 79.6438 38.6878 79.6438 39.2037C79.386 44.6199 77.5818 49.0045 74.2311 52.0996C70.8804 55.1946 66.2409 56.7421 60.3128 56.7421C54.3846 56.7421 49.7452 55.1946 46.3945 52.0996ZM66.7564 46.4254C68.3029 44.6199 69.0761 42.2987 69.0761 38.9457C69.0761 38.4299 69.0761 37.3982 69.0761 35.8507C69.0761 34.3032 69.0761 33.2715 69.0761 32.7557C69.0761 29.4028 68.3029 26.8236 66.7564 25.2761C65.2099 23.4707 63.148 22.6969 60.5705 22.6969C57.7353 22.6969 55.6733 23.4707 54.1269 25.2761C52.5804 27.0815 51.8071 29.4028 51.8071 32.7557V38.9457C51.8071 42.2987 52.5804 44.6199 54.1269 46.4254C55.6733 48.2308 57.7353 49.0045 60.5705 49.0045C63.148 49.0045 65.4677 48.2308 66.7564 46.4254Z" fill="#08083D"/>
<path d="M85.8295 55.4522C85.5718 55.1943 85.314 54.6784 85.314 54.1626V17.7962C85.314 17.2803 85.5718 16.7645 85.8295 16.5066C86.0873 16.2487 86.6028 15.9907 87.1183 15.9907H93.3042C93.8197 15.9907 94.3352 16.2487 94.5929 16.5066C94.8507 16.7645 95.1084 17.2803 95.1084 17.7962V20.3753C97.9436 16.7645 101.552 15.217 106.192 15.217C111.862 15.217 115.986 17.5382 118.048 22.1808C119.337 20.1174 121.141 18.5699 123.203 17.2803C125.523 15.9907 127.842 15.4749 130.42 15.4749C134.544 15.4749 138.152 17.0224 140.73 19.8595C143.307 22.6966 144.854 26.8233 144.854 32.4975V54.6784C144.854 55.1943 144.596 55.7101 144.338 55.968C144.08 56.2259 143.565 56.4838 143.049 56.4838H136.606C136.09 56.4838 135.575 56.2259 135.317 55.968C135.059 55.7101 134.801 55.1943 134.801 54.6784V33.0133C134.801 29.6604 134.028 27.3391 132.739 26.0495C131.451 24.502 129.646 23.9862 127.327 23.9862C125.265 23.9862 123.718 24.7599 122.172 26.3075C120.883 27.855 120.11 30.1762 120.11 33.2712V54.9363C120.11 55.4522 119.852 55.968 119.594 56.2259C119.337 56.4838 118.821 56.7418 118.306 56.7418H111.862C111.346 56.7418 110.831 56.4838 110.573 56.2259C110.315 55.968 110.058 55.4522 110.058 54.9363V33.2712C110.058 30.1762 109.284 27.855 107.996 26.3075C106.707 24.7599 104.903 23.9862 102.583 23.9862C100.521 23.9862 98.9746 24.7599 97.4281 26.3075C96.1394 27.855 95.3662 30.1762 95.3662 33.2712V54.9363C95.3662 55.4522 95.1084 55.968 94.8506 56.2259C94.5929 56.4838 94.0774 56.7418 93.5619 56.7418H87.1183C86.8605 55.968 86.345 55.968 85.8295 55.4522Z" fill="#08083D"/>
<path d="M162.123 51.3257V54.1628C162.123 54.6786 161.865 55.1945 161.607 55.4524C161.349 55.7103 160.834 55.9682 160.318 55.9682H154.132C153.617 55.9682 153.101 55.7103 152.844 55.4524C152.586 55.1945 152.328 54.6786 152.328 54.1628V3.09502C152.328 2.57919 152.586 2.06335 152.844 1.80543C153.101 1.54752 153.617 1.2896 154.132 1.2896H160.834C161.349 1.2896 161.865 1.54752 162.123 1.80543C162.38 2.06335 162.638 2.57919 162.638 3.09502V20.1176C165.473 16.7647 169.339 14.9593 174.494 14.9593C179.649 14.9593 183.773 16.7647 186.608 20.1176C189.444 23.4705 190.99 27.8552 190.99 33.2714C190.99 33.7873 190.99 34.8189 190.99 35.8506C190.99 36.8823 190.99 37.656 190.99 38.4298C190.732 44.104 189.186 48.4886 186.608 51.8415C183.773 55.1945 179.907 56.742 174.752 56.742C169.082 56.742 164.958 54.9365 162.123 51.3257ZM180.165 38.4298C180.165 37.914 180.165 37.1402 180.165 36.1085C180.165 35.0769 180.165 34.3031 180.165 33.7873C179.907 27.0814 176.814 23.4705 171.401 23.4705C168.566 23.4705 166.504 24.2443 164.958 26.0497C163.411 27.8552 162.638 29.9185 162.638 32.4977C162.638 33.0135 162.638 34.0452 162.638 35.5927C162.638 36.8823 162.638 37.914 162.638 38.4298C162.638 41.2669 163.411 43.5881 164.958 45.3936C166.504 47.199 168.566 48.2307 171.401 48.2307C176.814 48.4886 179.907 45.1357 180.165 38.4298Z" fill="#08083D"/>
<path d="M196.661 8.76921C196.403 8.51129 196.145 7.99546 196.145 7.47962V1.80543C196.145 1.28959 196.403 0.773753 196.661 0.515835C196.918 0.257917 197.434 0 197.949 0H205.166C205.682 0 206.197 0.257917 206.455 0.515835C206.713 0.773753 206.97 1.28959 206.97 1.80543V7.47962C206.97 7.99546 206.713 8.51129 206.455 8.76921C206.197 9.02713 205.682 9.28504 205.166 9.28504H197.949C197.434 9.28504 196.918 9.28505 196.661 8.76921ZM196.918 55.4524C196.661 55.1944 196.403 54.6786 196.403 54.1628V17.7963C196.403 17.2805 196.661 16.7647 196.918 16.5068C197.176 16.2488 197.692 15.9909 198.207 15.9909H204.651C205.166 15.9909 205.682 16.2488 205.939 16.5068C206.197 16.7647 206.455 17.2805 206.455 17.7963V54.1628C206.455 54.6786 206.197 55.1944 205.939 55.4524C205.682 55.7103 205.166 55.9682 204.651 55.9682H198.207C197.692 55.9682 197.176 55.9682 196.918 55.4524Z" fill="#08083D"/>
<path d="M214.187 55.4522C213.93 55.1943 213.672 54.6784 213.672 54.1626V17.7962C213.672 17.2803 213.93 16.7645 214.187 16.5066C214.445 16.2487 214.961 15.9907 215.476 15.9907H221.92C222.435 15.9907 222.951 16.2487 223.209 16.5066C223.466 16.7645 223.724 17.2803 223.724 17.7962V20.8912C226.817 17.0224 231.199 15.217 236.611 15.217C241.251 15.217 245.117 16.7645 247.952 19.8595C250.788 22.9545 252.076 27.0812 252.076 32.4975V54.1626C252.076 54.6784 251.818 55.1943 251.561 55.4522C251.303 55.7101 250.787 55.968 250.272 55.968H243.313C242.797 55.968 242.282 55.7101 242.024 55.4522C241.766 55.1943 241.509 54.6784 241.509 54.1626V33.0133C241.509 29.9183 240.735 27.597 239.189 26.0495C237.642 24.502 235.58 23.4704 233.003 23.4704C230.426 23.4704 228.364 24.2441 226.559 26.0495C225.013 27.855 224.24 30.1762 224.24 33.0133V54.1626C224.24 54.6784 223.982 55.1943 223.724 55.4522C223.466 55.7101 222.951 55.968 222.435 55.968H215.476C214.961 55.968 214.703 55.968 214.187 55.4522Z" fill="#08083D"/>
<path d="M263.159 55.1943C261.097 54.1626 259.293 52.6151 258.004 50.8096C256.716 49.0042 256.2 46.9409 256.2 44.8775C256.2 41.2667 257.489 38.4296 260.324 36.3662C263.159 34.3029 267.025 32.7554 271.923 31.9816L282.49 30.4341V28.8866C282.49 26.5654 281.975 25.0179 280.686 23.9862C279.655 22.9545 277.851 22.1808 275.273 22.1808C273.469 22.1808 272.18 22.4387 271.149 23.2124C270.118 23.7283 269.345 24.502 268.572 25.0179C268.057 25.5337 267.541 26.0495 267.283 26.3074C267.026 26.8233 266.768 27.3391 266.252 27.3391H260.582C260.066 27.3391 259.809 27.0812 259.293 26.8233C259.035 26.5654 258.778 26.0495 258.778 25.5337C258.778 24.2441 259.551 22.6966 260.582 21.1491C261.871 19.6016 263.675 18.0541 266.252 17.0224C268.83 15.7328 271.923 15.217 275.531 15.217C281.717 15.217 286.099 16.5066 288.934 19.3437C291.769 22.1808 293.058 25.5337 293.058 30.1762V54.4205C293.058 54.9363 292.8 55.4522 292.542 55.7101C292.285 55.968 291.769 56.2259 291.254 56.2259H284.81C284.295 56.2259 283.779 55.968 283.521 55.7101C283.264 55.4522 283.006 54.9363 283.006 54.4205V51.3255C281.975 52.873 280.171 54.4205 278.109 55.4522C276.047 56.4838 273.469 56.9997 270.376 56.9997C267.799 56.7418 265.479 56.2259 263.159 55.1943ZM280.171 46.683C281.975 44.8775 282.748 42.0404 282.748 38.6875V37.14L275.016 38.4296C269.087 39.4613 266.252 41.2667 266.252 44.3617C266.252 45.9092 267.026 47.1988 268.314 48.2305C269.603 49.0042 271.407 49.5201 273.211 49.5201C276.047 49.5201 278.366 48.4884 280.171 46.683Z" fill="#08083D"/>
<path d="M307.234 52.3571C304.914 50.0359 303.625 46.425 303.625 41.5246V23.9861H297.439C296.924 23.9861 296.409 23.7282 296.151 23.4703C295.893 23.2124 295.635 22.6966 295.635 22.1807V17.5382C295.635 17.0224 295.893 16.5065 296.151 16.2486C296.409 15.9907 296.924 15.7328 297.439 15.7328H303.625V2.83687C303.625 2.32104 303.883 1.8052 304.141 1.54728C304.399 1.28936 304.914 1.03145 305.43 1.03145H311.873C312.389 1.03145 312.904 1.28936 313.162 1.54728C313.42 1.8052 313.677 2.32104 313.677 2.83687V15.7328H323.214C323.73 15.7328 324.245 15.9907 324.503 16.2486C324.761 16.5065 325.018 17.0224 325.018 17.5382V22.1807C325.018 22.6966 324.761 23.2124 324.503 23.4703C324.245 23.7282 323.73 23.9861 323.214 23.9861H313.677V40.4929C313.677 42.8142 313.935 44.3617 314.708 45.3933C315.482 46.425 316.77 47.1988 318.575 47.1988H323.987C324.503 47.1988 325.018 47.4567 325.276 47.7146C325.534 47.9725 325.792 48.4884 325.792 49.0042V53.9046C325.792 54.4205 325.534 54.9363 325.276 55.1942C325.018 55.4521 324.503 55.7101 323.987 55.7101H317.544C313.162 55.968 309.554 54.9363 307.234 52.3571Z" fill="#08083D"/>
<path d="M333.266 51.8416C329.915 48.4887 328.111 43.8462 327.853 37.6562V35.8507C327.853 29.4028 329.658 24.2444 333.008 20.6336C336.359 17.0227 340.999 14.9594 346.927 14.9594C353.113 14.9594 357.752 16.7648 361.103 20.6336C364.454 24.2444 366 29.4028 366 35.3349V36.8824C366 37.3982 365.742 37.9141 365.485 38.172C365.227 38.4299 364.711 38.6878 364.196 38.6878H338.679V39.2037C338.679 42.0408 339.452 44.362 340.999 46.4254C342.545 48.2308 344.607 49.2625 347.185 49.2625C350.02 49.2625 352.597 47.9729 354.401 45.6516C354.917 45.1358 355.175 44.6199 355.432 44.6199C355.69 44.6199 356.206 44.362 356.721 44.362H363.423C363.938 44.362 364.196 44.6199 364.711 44.6199C364.969 44.8779 365.227 45.1358 365.227 45.6516C365.227 46.9412 364.454 48.2308 362.907 50.0362C361.361 51.5837 359.299 53.1312 356.721 54.4208C353.886 55.7104 350.793 56.2262 347.185 56.2262C341.256 56.7421 336.617 55.1946 333.266 51.8416ZM355.432 32.4978C355.432 29.4028 354.659 26.8236 353.113 25.0182C351.566 23.2127 349.504 22.1811 346.927 22.1811C344.349 22.1811 342.287 23.2127 340.741 25.0182C339.194 26.8236 338.421 29.4028 338.421 32.2399V32.4978H355.432Z" fill="#08083D"/>
<path d="M372.96 6.97665H370.067V15H368.887V6.97665H366V6H372.96V6.97665Z" fill="#08083D"/>
<path d="M375.828 6L378.771 13.3434L381.713 6H383.252V15H382.065V11.4952L382.177 7.71223L379.222 15H378.313L375.365 7.73077L375.482 11.4952V15H374.295V6H375.828Z" fill="#08083D"/>
</svg>
