<svg xmlns="http://www.w3.org/2000/svg" viewBox="0 0 384 57"><defs><style>.cls-1{fill:#fff;}</style></defs><path class="cls-1" d="M5.41,52.1Q.38,47.45,0,39V32.76C.26,27.08,2.06,23,5.41,19.6,8.76,16.51,13.4,15,19.07,15A24.4,24.4,0,0,1,29.38,17c2.84,1.55,4.9,3.1,6.19,5.42a15.72,15.72,0,0,1,2.32,5.93c0,.52,0,1-.52,1.29a1.94,1.94,0,0,1-1.29.52H29.13c-.52,0-1,0-1.29-.26a5.81,5.81,0,0,1-.78-1.29A7.64,7.64,0,0,0,24,24.5a9.19,9.19,0,0,0-4.9-1.29,7.65,7.65,0,0,0-6.18,2.58c-1.55,1.55-2.32,4.13-2.32,7.48v5.42q.39,10.05,8.5,10.06A9.19,9.19,0,0,0,24,47.46a8.36,8.36,0,0,0,3.09-4.39,5.81,5.81,0,0,1,.78-1.29c.25-.26.77-.26,1.29-.26h7a1.94,1.94,0,0,1,1.29.52,2,2,0,0,1,.52,1.29,11.7,11.7,0,0,1-2.06,5.93,16.15,16.15,0,0,1-6.19,5.42A21,21,0,0,1,19.33,57C13.4,56.74,8.76,55.19,5.41,52.1Z"/><path class="cls-1" d="M46.39,52.1C43,49,41.24,44.62,41,39.2V32.5a18.53,18.53,0,0,1,5.41-12.9Q51.43,15,60.31,15T74.23,19.6c3.35,3.1,5.16,7.48,5.41,12.9v6.7c-.25,5.42-2.06,9.8-5.41,12.9s-8,4.64-13.92,4.64S49.75,55.19,46.39,52.1Zm20.37-5.67c1.54-1.81,2.32-4.13,2.32-7.48V32.76c0-3.36-.78-5.94-2.32-7.48a7.63,7.63,0,0,0-6.19-2.58c-2.83,0-4.9.77-6.44,2.58s-2.32,4.12-2.32,7.48V39c0,3.35.77,5.67,2.32,7.48S57.74,49,60.57,49C63.15,49,65.47,48.23,66.76,46.43Z"/><path class="cls-1" d="M85.83,55.45a2,2,0,0,1-.52-1.29V17.8a1.94,1.94,0,0,1,.52-1.29A2,2,0,0,1,87.12,16H93.3a1.78,1.78,0,0,1,1.81,1.81v2.58c2.83-3.62,6.44-5.16,11.08-5.16,5.67,0,9.8,2.32,11.86,7a15.68,15.68,0,0,1,5.15-4.9,14.3,14.3,0,0,1,7.22-1.81,13.61,13.61,0,0,1,10.31,4.39c2.58,2.84,4.12,7,4.12,12.64V54.68a1.74,1.74,0,0,1-1.8,1.8h-6.44a1.93,1.93,0,0,1-1.29-.51,2,2,0,0,1-.52-1.29V33c0-3.35-.77-5.67-2.06-7-1.29-1.55-3.09-2.06-5.41-2.06a6.88,6.88,0,0,0-5.16,2.32,10.66,10.66,0,0,0-2.06,7V54.94a1.76,1.76,0,0,1-1.8,1.8h-6.45a2,2,0,0,1-1.29-.51,2,2,0,0,1-.51-1.29V33.27a10.71,10.71,0,0,0-2.06-7A6.66,6.66,0,0,0,102.58,24a6.84,6.84,0,0,0-5.15,2.32,10.66,10.66,0,0,0-2.06,7V54.94a2,2,0,0,1-.52,1.29,2,2,0,0,1-1.29.51H87.12C86.86,56,86.35,56,85.83,55.45Z"/><path class="cls-1" d="M162.12,51.33v2.83a2,2,0,0,1-.51,1.29,2,2,0,0,1-1.29.52h-6.19a2,2,0,0,1-1.29-.52,2,2,0,0,1-.51-1.29V3.1a2,2,0,0,1,.51-1.29,2,2,0,0,1,1.29-.52h6.7a2,2,0,0,1,1.29.52,1.94,1.94,0,0,1,.52,1.29v17c2.83-3.36,6.7-5.16,11.85-5.16s9.28,1.8,12.12,5.16S191,27.86,191,33.27v5.16c-.26,5.67-1.8,10.06-4.38,13.41-2.84,3.35-6.7,4.9-11.86,4.9C169.08,56.74,165,54.94,162.12,51.33Zm18-12.9V33.79c-.25-6.71-3.35-10.32-8.76-10.32-2.83,0-4.9.77-6.44,2.58a9.43,9.43,0,0,0-2.32,6.45v5.93a10.28,10.28,0,0,0,2.32,7,8,8,0,0,0,6.44,2.84C176.81,48.49,179.91,45.14,180.16,38.43Z"/><path class="cls-1" d="M196.66,8.77a2,2,0,0,1-.51-1.29V1.81a1.93,1.93,0,0,1,.51-1.29A2,2,0,0,1,198,0h7.22a1.93,1.93,0,0,1,1.28.52A1.94,1.94,0,0,1,207,1.81V7.48a2,2,0,0,1-.52,1.29,1.93,1.93,0,0,1-1.28.51H198C197.43,9.28,196.92,9.29,196.66,8.77Zm.26,46.68a2,2,0,0,1-.52-1.29V17.8a1.94,1.94,0,0,1,.52-1.29,2,2,0,0,1,1.29-.52h6.44a2,2,0,0,1,1.29.52,1.93,1.93,0,0,1,.51,1.29V54.16a1.76,1.76,0,0,1-1.8,1.81h-6.44C197.69,56,197.18,56,196.92,55.45Z"/><path class="cls-1" d="M214.19,55.45a2,2,0,0,1-.52-1.29V17.8A1.78,1.78,0,0,1,215.48,16h6.44a2,2,0,0,1,1.29.52,1.93,1.93,0,0,1,.51,1.29v3.09c3.1-3.87,7.48-5.67,12.89-5.67A14.73,14.73,0,0,1,248,19.86c2.84,3.09,4.13,7.22,4.13,12.64V54.16A1.78,1.78,0,0,1,250.27,56h-7a2,2,0,0,1-1.29-.52,2,2,0,0,1-.51-1.29V33q0-4.63-2.32-7a9,9,0,0,0-12.63,0,10.3,10.3,0,0,0-2.32,7V54.16a2,2,0,0,1-.52,1.29,1.94,1.94,0,0,1-1.29.52h-7A1.41,1.41,0,0,1,214.19,55.45Z"/><path class="cls-1" d="M263.16,55.19A14.18,14.18,0,0,1,258,50.81a10.11,10.11,0,0,1-1.8-5.93,9.85,9.85,0,0,1,4.12-8.51A26.65,26.65,0,0,1,271.92,32l10.57-1.55V28.89c0-2.32-.51-3.87-1.8-4.9a7.49,7.49,0,0,0-5.42-1.81,6.55,6.55,0,0,0-4.12,1A22.14,22.14,0,0,0,268.57,25l-1.29,1.29c-.25.51-.51,1-1,1h-5.67c-.51,0-.77-.26-1.29-.52a1.93,1.93,0,0,1-.51-1.29,8.83,8.83,0,0,1,1.8-4.38A14,14,0,0,1,266.25,17a20.57,20.57,0,0,1,9.28-1.8c6.19,0,10.57,1.29,13.4,4.12s4.13,6.19,4.13,10.84V54.42a1.78,1.78,0,0,1-1.81,1.81h-6.44a2,2,0,0,1-1.29-.52,2,2,0,0,1-.51-1.29V51.33a13.13,13.13,0,0,1-4.9,4.12A17.22,17.22,0,0,1,270.38,57,22.68,22.68,0,0,1,263.16,55.19Zm17-8.51c1.81-1.8,2.58-4.64,2.58-8V37.14L275,38.43c-5.93,1-8.77,2.84-8.77,5.93a4.92,4.92,0,0,0,2.06,3.87,9.93,9.93,0,0,0,4.9,1.29A9.49,9.49,0,0,0,280.17,46.68Z"/><path class="cls-1" d="M307.23,52.36c-2.32-2.32-3.61-5.94-3.61-10.84V24h-6.18a1.76,1.76,0,0,1-1.8-1.81V17.54a1.76,1.76,0,0,1,1.8-1.81h6.18V2.84a2,2,0,0,1,.52-1.29A2,2,0,0,1,305.43,1h6.44a2,2,0,0,1,1.29.52,2,2,0,0,1,.52,1.29V15.73h9.53a1.94,1.94,0,0,1,1.29.52,2,2,0,0,1,.52,1.29v4.64a2,2,0,0,1-.52,1.29,1.94,1.94,0,0,1-1.29.52h-9.53v16.5c0,2.32.25,3.87,1,4.9a4.66,4.66,0,0,0,3.87,1.81H324a1.74,1.74,0,0,1,1.8,1.8v4.9a1.76,1.76,0,0,1-1.8,1.81h-6.45C313.16,56,309.55,54.94,307.23,52.36Z"/><path class="cls-1" d="M333.27,51.84c-3.35-3.35-5.16-8-5.42-14.18V35.85c0-6.45,1.81-11.61,5.16-15.22S341,15,346.93,15c6.18,0,10.82,1.8,14.17,5.67,3.35,3.61,4.9,8.77,4.9,14.7v1.55a2,2,0,0,1-.51,1.29,2,2,0,0,1-1.29.52H338.68v.51A11.55,11.55,0,0,0,341,46.43a7.86,7.86,0,0,0,6.18,2.83,9,9,0,0,0,7.22-3.61c.52-.51.77-1,1-1a11.47,11.47,0,0,1,1.29-.26h6.7c.52,0,.78.26,1.29.26a1.35,1.35,0,0,1,.52,1c0,1.29-.78,2.58-2.32,4.39a24,24,0,0,1-6.19,4.38,22.48,22.48,0,0,1-9.54,1.81C341.26,56.74,336.62,55.19,333.27,51.84ZM355.43,32.5A11.25,11.25,0,0,0,353.11,25a8.15,8.15,0,0,0-12.37,0,11,11,0,0,0-2.32,7.22v.26Z"/><path class="cls-1" d="M373,7h-2.89v8h-1.18V7H366V6h7Z"/><path class="cls-1" d="M375.83,6l2.94,7.34L381.71,6h1.54v9h-1.18V11.5l.11-3.79-3,7.29h-.91l-2.95-7.27.12,3.77V15H374.3V6Z"/></svg>